<?xml version="1.0" encoding="UTF-8"?><svg id="Layer_1" xmlns="http://www.w3.org/2000/svg" viewBox="0 0 1000 174.17"><defs><style>.cls-1{fill:#0066f6;}.cls-2{fill:#333;}</style></defs><g><path class="cls-2" d="M276.33,109.98c8.14,9.81,24.41,16.06,41.1,16.06,9.6,0,12.73-4.59,12.73-8.76,0-5.01-7.93-7.51-17.53-10.64-16.27-5.01-38.6-11.89-38.6-34.63,0-17.94,18.57-38.18,48.61-38.18,21.49,0,41.1,8.35,51.95,19.82l-18.15,21.7c-8.55-8.55-22.74-14.19-35.26-14.19-8.14,0-12.1,4.38-12.1,8.35,0,4.59,7.72,7.09,17.32,10.01,16.27,5.01,38.81,11.89,38.81,35.47,0,19.4-16.69,38.6-49.66,38.6-23.99,0-45.28-6.88-57.38-19.82l18.15-23.78Z"/><path class="cls-2" d="M434.89,47.8c25.45,0,46.32,16.06,46.32,45.48,0,6.26-1.25,13.98-2.09,17.53h-71.36v1.25c0,5.01,7.51,16.69,24.2,16.69,8.35,0,18.15-2.29,23.58-6.26l9.81,21.28c-9.81,6.68-23.58,9.81-35.89,9.81-32.13,0-53.62-16.69-53.62-45.69,0-32.34,24.62-60.09,59.05-60.09Zm17.73,42.15c.21-.42,.21-1.04,.21-1.46,0-6.47-5.42-15.86-19.4-15.86-12.1,0-20.86,9.6-22.53,17.32h41.73Z"/><path class="cls-2" d="M584.9,11.91h31.92l-30.88,139.16h-31.92l2.5-11.68c-8.55,9.81-17.53,14.19-28.79,14.19-22.53,0-37.76-14.81-37.76-41.73,0-29.21,17.94-64.05,52.99-64.05,12.52,0,24.2,5.01,30.67,14.4l11.27-50.28Zm-42.15,113.29c7.51,0,14.19-3.76,18.99-9.39l6.89-30.46c-4.17-5.42-11.48-9.18-20.03-9.18-14.81,0-25.45,13.14-25.45,29,0,12.1,8.56,20.03,19.61,20.03Z"/><path class="cls-2" d="M663.77,50.3l-12.73,58.21c-.42,1.88-.83,3.96-.83,5.43,0,8.14,6.68,11.27,14.81,11.27,2.14,0,4.19-.33,6.13-.89,8.39-2.43,14.61-9.53,16.48-18.06l12.23-55.95h32.13l-22.33,100.77h-32.13l2.92-12.31c-7.72,7.09-17.73,14.81-32.76,14.81-20.24,0-32.34-10.85-32.34-26.08,0-1.88,.63-6.26,1.04-8.35l15.44-68.85h31.92Z"/><path class="cls-2" d="M733.03,151.08l30.67-139.16h32.13l-30.67,139.16h-32.13Z"/><path class="cls-2" d="M842.78,50.3l-12.73,58.21c-.42,1.88-.83,3.96-.83,5.43,0,8.14,6.68,11.27,14.81,11.27,2.14,0,4.19-.33,6.13-.89,8.39-2.43,14.61-9.53,16.48-18.06l12.23-55.95h32.13l-22.33,100.77h-32.13l2.92-12.31c-7.72,7.09-17.73,14.81-32.76,14.81-20.24,0-32.34-10.85-32.34-26.08,0-1.88,.63-6.26,1.04-8.35l15.44-68.85h31.92Z"/><path class="cls-2" d="M912.04,151.08l22.33-100.77h32.13l-2.92,12.52c8.35-8.97,19.61-15.02,34.84-15.02l-6.88,31.51c-1.67-.42-6.05-1.25-10.43-1.25-8.97,0-17.53,3.96-23.16,9.81l-13.77,63.22h-32.13Z"/></g><path class="cls-1" d="M151.77,95.95h-43.3s20.86-39.28,20.86-39.28H39.63S60.39,11.88,60.39,11.88C63.75,4.64,71.01,0,78.99,0h81.45c25.06,0,45.37,20.31,45.37,45.37h0c0,7.42-1.82,14.72-5.3,21.28h0c-9.58,18.03-28.32,29.31-48.74,29.31Z"/><path class="cls-1" d="M126.82,174.17H45.37C20.31,174.17,0,153.86,0,128.8H0c0-7.42,1.82-14.72,5.3-21.28h0c9.58-18.03,28.32-29.31,48.74-29.31h43.3s-20.86,39.28-20.86,39.28h89.69s-20.76,44.79-20.76,44.79c-3.36,7.24-10.61,11.88-18.6,11.88Z"/></svg>